<mxfile host="app.diagrams.net" agent="Mozilla/5.0 (Macintosh; Intel Mac OS X 10.15; rv:135.0) Gecko/20100101 Firefox/135.0" version="26.0.16">
  <diagram name="Page-1" id="2Q9V9P2lFE7lSomWzaya">
    <mxGraphModel dx="1166" dy="666" grid="1" gridSize="10" guides="1" tooltips="1" connect="1" arrows="1" fold="1" page="1" pageScale="1" pageWidth="1169" pageHeight="827" math="0" shadow="0">
      <root>
        <mxCell id="0" />
        <mxCell id="1" parent="0" />
        <mxCell id="2uqbH7pq5RH6AmWOPkkg-1" value="" style="whiteSpace=wrap;html=1;fillColor=#DDEDFD;rounded=1;arcSize=2;strokeWidth=2;strokeColor=none;imageAspect=1;resizeHeight=0;resizeWidth=0;gradientColor=none;" parent="1" vertex="1">
          <mxGeometry x="10" y="30" width="1140" height="497" as="geometry" />
        </mxCell>
        <mxCell id="2uqbH7pq5RH6AmWOPkkg-2" value="" style="rounded=0;orthogonalLoop=1;jettySize=auto;html=1;bendable=1;orthogonal=0;ignoreEdge=0;endFill=1;noJump=0;strokeColor=default;endArrow=blockThin;startFill=0;entryX=-0.002;entryY=0.335;entryDx=0;entryDy=0;entryPerimeter=0;exitX=1;exitY=0.335;exitDx=0;exitDy=0;exitPerimeter=0;strokeWidth=3;" parent="1" source="2uqbH7pq5RH6AmWOPkkg-4" target="2uqbH7pq5RH6AmWOPkkg-8" edge="1">
          <mxGeometry relative="1" as="geometry">
            <mxPoint x="184.69000000000028" y="220.27199999999993" as="sourcePoint" />
            <mxPoint x="264.96000000000004" y="219.83999999999992" as="targetPoint" />
          </mxGeometry>
        </mxCell>
        <mxCell id="2uqbH7pq5RH6AmWOPkkg-3" value="VNet&lt;div&gt;Peering&lt;/div&gt;" style="edgeLabel;html=1;align=center;verticalAlign=middle;resizable=0;points=[];labelBackgroundColor=#DDEDFD;" parent="2uqbH7pq5RH6AmWOPkkg-2" vertex="1" connectable="0">
          <mxGeometry x="0.102" y="1" relative="1" as="geometry">
            <mxPoint x="-10" y="2" as="offset" />
          </mxGeometry>
        </mxCell>
        <mxCell id="2uqbH7pq5RH6AmWOPkkg-4" value="" style="whiteSpace=wrap;html=1;fillColor=none;rounded=1;arcSize=2;dashed=1;dashPattern=1 1;strokeWidth=2;strokeColor=#007FFF;" parent="1" vertex="1">
          <mxGeometry x="53" y="90" width="127" height="384" as="geometry" />
        </mxCell>
        <mxCell id="2uqbH7pq5RH6AmWOPkkg-5" value="&lt;span data-lucid-type=&quot;application/vnd.lucid.text&quot; data-lucid-content=&quot;{&amp;quot;t&amp;quot;:&amp;quot;Azure East Australia Region (Sydney, EAu)&amp;quot;,&amp;quot;m&amp;quot;:[{&amp;quot;s&amp;quot;:6,&amp;quot;n&amp;quot;:&amp;quot;c&amp;quot;,&amp;quot;v&amp;quot;:&amp;quot;333333ff&amp;quot;,&amp;quot;e&amp;quot;:41},{&amp;quot;s&amp;quot;:6,&amp;quot;n&amp;quot;:&amp;quot;s&amp;quot;,&amp;quot;v&amp;quot;:17.77777777777777,&amp;quot;e&amp;quot;:41}]}&quot;&gt;Microsoft Azure,&amp;nbsp;&lt;span style=&quot;color:#333333;font-size:13.333333333333329px;&quot;&gt;Australia East Region (Sydney, AuE)&lt;/span&gt;&lt;/span&gt;" style="image;aspect=fixed;html=1;points=[];align=left;fontSize=12;image=img/lib/azure2/other/Azure_A.svg;labelPosition=right;verticalLabelPosition=top;verticalAlign=bottom;spacing=0;fontStyle=1" parent="1" vertex="1">
          <mxGeometry x="16.18" y="21" width="31.82" height="30" as="geometry" />
        </mxCell>
        <mxCell id="2uqbH7pq5RH6AmWOPkkg-6" value="" style="whiteSpace=wrap;html=1;fillColor=#E6E6E6;rounded=1;arcSize=2;strokeWidth=2;strokeColor=none;imageAspect=1;resizeHeight=0;resizeWidth=0;gradientColor=none;" parent="1" vertex="1">
          <mxGeometry x="197" y="650" width="420.82" height="160" as="geometry" />
        </mxCell>
        <mxCell id="2uqbH7pq5RH6AmWOPkkg-7" value="On-Premises" style="image;aspect=fixed;html=1;points=[];align=left;fontSize=12;image=img/lib/azure2/other/Exchange_On_Premises_Access.svg;labelPosition=right;verticalLabelPosition=top;verticalAlign=bottom;spacingRight=-2;spacing=0;fontStyle=1" parent="1" vertex="1">
          <mxGeometry x="208" y="647" width="23.53" height="40" as="geometry" />
        </mxCell>
        <mxCell id="2uqbH7pq5RH6AmWOPkkg-8" value="" style="whiteSpace=wrap;html=1;fillColor=none;rounded=1;arcSize=2;dashed=1;dashPattern=1 1;strokeWidth=2;strokeColor=#007FFF;glass=0;" parent="1" vertex="1">
          <mxGeometry x="253" y="90" width="387" height="384" as="geometry" />
        </mxCell>
        <mxCell id="2uqbH7pq5RH6AmWOPkkg-9" value="Hub&amp;nbsp;&lt;span style=&quot;background-color: light-dark(rgb(221, 237, 253), rgb(23, 37, 50)); color: light-dark(rgb(0, 0, 0), rgb(255, 255, 255));&quot;&gt;VNet&lt;/span&gt;&lt;div&gt;&lt;span style=&quot;background-color: light-dark(rgb(221, 237, 253), rgb(23, 37, 50)); color: light-dark(rgb(0, 0, 0), rgb(255, 255, 255));&quot;&gt;10.99.0.0/16&lt;/span&gt;&lt;/div&gt;" style="image;aspect=fixed;html=1;points=[];align=left;fontSize=12;image=img/lib/azure2/networking/Virtual_Networks.svg;imageBackground=#DDEDFD;labelBackgroundColor=#DDEDFD;spacing=0;verticalAlign=top;" parent="1" vertex="1">
          <mxGeometry x="279" y="465" width="25" height="14.93" as="geometry" />
        </mxCell>
        <mxCell id="2uqbH7pq5RH6AmWOPkkg-10" value="Landing Zone (Spoke)&lt;div&gt;VNet&amp;nbsp;&lt;span style=&quot;color: light-dark(rgb(0, 0, 0), rgb(255, 255, 255));&quot;&gt;10.91.0.0/16&lt;/span&gt;&lt;/div&gt;" style="image;aspect=fixed;html=1;points=[];align=left;fontSize=12;image=img/lib/azure2/networking/Virtual_Networks.svg;imageBackground=#DDEDFD;labelBackgroundColor=#DDEDFD;spacing=0;labelPosition=center;verticalLabelPosition=bottom;verticalAlign=top;" parent="1" vertex="1">
          <mxGeometry x="59" y="467" width="25" height="14.93" as="geometry" />
        </mxCell>
        <mxCell id="2uqbH7pq5RH6AmWOPkkg-11" value="On-Prem Network" style="whiteSpace=wrap;html=1;fillColor=none;rounded=1;arcSize=2;dashed=1;dashPattern=1 1;strokeWidth=2;strokeColor=#999999;labelPosition=center;verticalLabelPosition=top;align=left;verticalAlign=bottom;" parent="1" vertex="1">
          <mxGeometry x="257" y="677" width="320" height="123" as="geometry" />
        </mxCell>
        <mxCell id="2uqbH7pq5RH6AmWOPkkg-12" value="" style="whiteSpace=wrap;html=1;fillColor=default;rounded=1;arcSize=2;strokeWidth=2;strokeColor=none;" parent="1" vertex="1">
          <mxGeometry x="273" y="367" width="257" height="80" as="geometry" />
        </mxCell>
        <mxCell id="2uqbH7pq5RH6AmWOPkkg-13" value="ExpressRoute&lt;div&gt;Gateway&lt;/div&gt;" style="image;aspect=fixed;html=1;points=[];align=center;fontSize=12;image=img/lib/azure2/networking/Virtual_Network_Gateways.svg;labelBackgroundColor=none;spacing=0;" parent="1" vertex="1">
          <mxGeometry x="338" y="375" width="28.64" height="38" as="geometry" />
        </mxCell>
        <mxCell id="2uqbH7pq5RH6AmWOPkkg-14" style="rounded=0;orthogonalLoop=1;jettySize=auto;html=1;entryX=0.5;entryY=1;entryDx=0;entryDy=0;endArrow=blockThin;startFill=0;strokeColor=#000000;strokeWidth=3;endFill=1;" parent="1" source="2uqbH7pq5RH6AmWOPkkg-16" target="2uqbH7pq5RH6AmWOPkkg-12" edge="1">
          <mxGeometry relative="1" as="geometry" />
        </mxCell>
        <mxCell id="2uqbH7pq5RH6AmWOPkkg-15" value="" style="whiteSpace=wrap;html=1;fillColor=default;rounded=1;arcSize=2;strokeWidth=2;strokeColor=none;labelPosition=center;verticalLabelPosition=top;align=left;verticalAlign=bottom;" parent="1" vertex="1">
          <mxGeometry x="73" y="130" width="88" height="300" as="geometry" />
        </mxCell>
        <mxCell id="2uqbH7pq5RH6AmWOPkkg-16" value="" style="image;aspect=fixed;html=1;points=[];align=center;fontSize=12;image=img/lib/azure2/other/Local_Network_Gateways.svg;" parent="1" vertex="1">
          <mxGeometry x="384" y="657" width="40" height="40" as="geometry" />
        </mxCell>
        <mxCell id="2uqbH7pq5RH6AmWOPkkg-17" value="Gateway Subnet" style="image;aspect=fixed;html=1;points=[];align=left;fontSize=12;image=img/lib/azure2/networking/Subnet.svg;labelBackgroundColor=#DDEDFD;spacing=0;labelPosition=center;verticalLabelPosition=bottom;verticalAlign=bottom;" parent="1" vertex="1">
          <mxGeometry x="431" y="438" width="25" height="14.97" as="geometry" />
        </mxCell>
        <mxCell id="2uqbH7pq5RH6AmWOPkkg-18" value="ExpressRoute Circuit" style="image;aspect=fixed;html=1;points=[];align=center;fontSize=12;image=img/lib/azure2/networking/ExpressRoute_Circuits.svg;imageBackground=default;spacing=0;" parent="1" vertex="1">
          <mxGeometry x="383" y="547" width="43.75" height="40" as="geometry" />
        </mxCell>
        <mxCell id="2uqbH7pq5RH6AmWOPkkg-19" value="Server Subnet" style="whiteSpace=wrap;html=1;fillColor=default;rounded=1;arcSize=2;strokeWidth=2;strokeColor=none;labelPosition=center;verticalLabelPosition=top;align=left;verticalAlign=bottom;" parent="1" vertex="1">
          <mxGeometry x="267" y="707" width="300" height="83" as="geometry" />
        </mxCell>
        <mxCell id="2uqbH7pq5RH6AmWOPkkg-20" value="" style="image;aspect=fixed;html=1;points=[];align=center;fontSize=12;image=img/lib/azure2/compute/Virtual_Machine.svg;" parent="1" vertex="1">
          <mxGeometry x="90" y="206" width="32.34" height="30" as="geometry" />
        </mxCell>
        <mxCell id="2uqbH7pq5RH6AmWOPkkg-21" value="SQL VMs" style="image;aspect=fixed;html=1;points=[];align=center;fontSize=12;image=img/lib/azure2/compute/Virtual_Machine.svg;" parent="1" vertex="1">
          <mxGeometry x="105.83" y="218" width="32.34" height="30" as="geometry" />
        </mxCell>
        <mxCell id="2uqbH7pq5RH6AmWOPkkg-22" value="" style="image;aspect=fixed;html=1;points=[];align=center;fontSize=12;image=img/lib/azure2/compute/Virtual_Machine.svg;" parent="1" vertex="1">
          <mxGeometry x="371.33" y="722" width="32.34" height="30" as="geometry" />
        </mxCell>
        <mxCell id="2uqbH7pq5RH6AmWOPkkg-23" value="SQL VMs" style="image;aspect=fixed;html=1;points=[];align=center;fontSize=12;image=img/lib/azure2/compute/Virtual_Machine.svg;" parent="1" vertex="1">
          <mxGeometry x="388.33" y="734" width="32.34" height="30" as="geometry" />
        </mxCell>
        <mxCell id="2uqbH7pq5RH6AmWOPkkg-24" value="Landing Zone&lt;div&gt;Subnet&lt;/div&gt;" style="image;aspect=fixed;html=1;points=[];align=center;fontSize=12;image=img/lib/azure2/networking/Subnet.svg;labelBackgroundColor=#DDEDFD;spacing=0;verticalAlign=top;" parent="1" vertex="1">
          <mxGeometry x="107" y="420" width="25" height="14.97" as="geometry" />
        </mxCell>
        <mxCell id="2uqbH7pq5RH6AmWOPkkg-25" value="" style="whiteSpace=wrap;html=1;fillColor=default;rounded=1;arcSize=2;strokeWidth=2;strokeColor=none;" parent="1" vertex="1">
          <mxGeometry x="273" y="190" width="257" height="150" as="geometry" />
        </mxCell>
        <mxCell id="2uqbH7pq5RH6AmWOPkkg-26" value="" style="whiteSpace=wrap;html=1;fillColor=default;rounded=1;arcSize=2;strokeWidth=2;strokeColor=none;" parent="1" vertex="1">
          <mxGeometry x="268" y="100" width="262" height="60" as="geometry" />
        </mxCell>
        <mxCell id="2uqbH7pq5RH6AmWOPkkg-27" value="" style="whiteSpace=wrap;html=1;fillColor=default;rounded=1;arcSize=2;strokeWidth=2;strokeColor=none;" parent="1" vertex="1">
          <mxGeometry x="555" y="100" width="70" height="347" as="geometry" />
        </mxCell>
        <mxCell id="2uqbH7pq5RH6AmWOPkkg-28" value="PE Subnet" style="image;aspect=fixed;html=1;points=[];align=center;fontSize=12;image=img/lib/azure2/networking/Subnet.svg;labelBackgroundColor=#DDEDFD;spacing=0;verticalAlign=bottom;" parent="1" vertex="1">
          <mxGeometry x="586" y="437" width="25" height="14.98" as="geometry" />
        </mxCell>
        <mxCell id="2uqbH7pq5RH6AmWOPkkg-29" value="Firewall&lt;div&gt;&lt;span style=&quot;background-color: light-dark(#ffffff, var(--ge-dark-color, #121212)); color: light-dark(rgb(0, 0, 0), rgb(255, 255, 255));&quot;&gt;NVA1&lt;/span&gt;&lt;/div&gt;" style="image;aspect=fixed;html=1;points=[];align=left;fontSize=12;image=img/lib/azure2/compute/Virtual_Machine.svg;spacing=2;verticalAlign=middle;labelPosition=right;verticalLabelPosition=middle;" parent="1" vertex="1">
          <mxGeometry x="306.15999999999997" y="208" width="32.34" height="30" as="geometry" />
        </mxCell>
        <mxCell id="2uqbH7pq5RH6AmWOPkkg-30" value="Firewall&lt;div&gt;&lt;span style=&quot;background-color: light-dark(#ffffff, var(--ge-dark-color, #121212)); color: light-dark(rgb(0, 0, 0), rgb(255, 255, 255));&quot;&gt;NVA2&lt;/span&gt;&lt;/div&gt;" style="image;aspect=fixed;html=1;points=[];align=right;fontSize=12;image=img/lib/azure2/compute/Virtual_Machine.svg;spacing=3;verticalAlign=middle;labelPosition=left;verticalLabelPosition=middle;" parent="1" vertex="1">
          <mxGeometry x="466.22" y="208" width="32.34" height="30" as="geometry" />
        </mxCell>
        <mxCell id="2uqbH7pq5RH6AmWOPkkg-31" value="SD-WAN&lt;div&gt;&lt;span style=&quot;background-color: light-dark(#ffffff, var(--ge-dark-color, #121212)); color: light-dark(rgb(0, 0, 0), rgb(255, 255, 255));&quot;&gt;NVA1&lt;/span&gt;&lt;/div&gt;" style="image;aspect=fixed;html=1;points=[];align=left;fontSize=12;image=img/lib/azure2/compute/Virtual_Machine.svg;spacing=3;verticalAlign=middle;labelPosition=right;verticalLabelPosition=middle;" parent="1" vertex="1">
          <mxGeometry x="308.65999999999997" y="289" width="32.34" height="30" as="geometry" />
        </mxCell>
        <mxCell id="2uqbH7pq5RH6AmWOPkkg-32" value="SD-WAN&lt;div&gt;&lt;span style=&quot;background-color: light-dark(#ffffff, var(--ge-dark-color, #121212)); color: light-dark(rgb(0, 0, 0), rgb(255, 255, 255));&quot;&gt;NVA2&lt;/span&gt;&lt;/div&gt;" style="image;aspect=fixed;html=1;points=[];align=right;fontSize=12;image=img/lib/azure2/compute/Virtual_Machine.svg;spacing=3;verticalAlign=middle;labelPosition=left;verticalLabelPosition=middle;" parent="1" vertex="1">
          <mxGeometry x="469.2199999999999" y="290" width="32.34" height="30" as="geometry" />
        </mxCell>
        <mxCell id="2uqbH7pq5RH6AmWOPkkg-33" value="" style="image;aspect=fixed;html=1;points=[];align=left;fontSize=12;image=img/lib/azure2/networking/Virtual_Router.svg;spacing=2;labelPosition=right;verticalLabelPosition=middle;verticalAlign=middle;" parent="1" vertex="1">
          <mxGeometry x="371.5" y="106" width="34" height="34" as="geometry" />
        </mxCell>
        <mxCell id="2uqbH7pq5RH6AmWOPkkg-34" value="Private&lt;div&gt;Endpoint&lt;/div&gt;" style="image;aspect=fixed;html=1;points=[];align=center;fontSize=12;image=img/lib/azure2/networking/Private_Endpoint.svg;" parent="1" vertex="1">
          <mxGeometry x="570.95" y="197" width="40" height="36.67" as="geometry" />
        </mxCell>
        <mxCell id="2uqbH7pq5RH6AmWOPkkg-35" value="" style="rounded=0;orthogonalLoop=1;jettySize=auto;html=1;bendable=1;orthogonal=0;ignoreEdge=0;endFill=1;noJump=0;strokeColor=default;exitX=0.5;exitY=0;exitDx=0;exitDy=0;endArrow=blockThin;startFill=0;entryX=0.5;entryY=1;entryDx=0;entryDy=0;strokeWidth=3;" parent="1" source="2uqbH7pq5RH6AmWOPkkg-12" target="2uqbH7pq5RH6AmWOPkkg-25" edge="1">
          <mxGeometry relative="1" as="geometry">
            <mxPoint x="212" y="300" as="sourcePoint" />
            <mxPoint x="283" y="300" as="targetPoint" />
          </mxGeometry>
        </mxCell>
        <mxCell id="2uqbH7pq5RH6AmWOPkkg-36" value="" style="rounded=0;orthogonalLoop=1;jettySize=auto;html=1;bendable=1;orthogonal=0;ignoreEdge=0;endFill=1;noJump=0;strokeColor=default;endArrow=blockThin;startFill=0;entryX=-0.021;entryY=0.349;entryDx=0;entryDy=0;entryPerimeter=0;strokeWidth=3;exitX=0.994;exitY=0.202;exitDx=0;exitDy=0;exitPerimeter=0;" parent="1" source="2uqbH7pq5RH6AmWOPkkg-25" target="2uqbH7pq5RH6AmWOPkkg-27" edge="1">
          <mxGeometry relative="1" as="geometry">
            <mxPoint x="534" y="221" as="sourcePoint" />
            <mxPoint x="554" y="213" as="targetPoint" />
          </mxGeometry>
        </mxCell>
        <mxCell id="2uqbH7pq5RH6AmWOPkkg-37" value="Internet" style="sketch=0;aspect=fixed;pointerEvents=1;shadow=0;dashed=0;html=1;strokeColor=none;labelPosition=center;verticalLabelPosition=middle;verticalAlign=bottom;align=center;fillColor=#666666;shape=mxgraph.mscae.enterprise.internet_hollow" parent="1" vertex="1">
          <mxGeometry x="682" y="544" width="117.74" height="73" as="geometry" />
        </mxCell>
        <mxCell id="2uqbH7pq5RH6AmWOPkkg-38" value="" style="image;aspect=fixed;html=1;points=[];align=center;fontSize=12;image=img/lib/azure2/networking/Public_IP_Addresses.svg;" parent="1" vertex="1">
          <mxGeometry x="452.55999999999995" y="382" width="32.5" height="26" as="geometry" />
        </mxCell>
        <mxCell id="2uqbH7pq5RH6AmWOPkkg-39" value="NVA Subnet" style="image;aspect=fixed;html=1;points=[];align=left;fontSize=12;image=img/lib/azure2/networking/Subnet.svg;labelBackgroundColor=#DDEDFD;spacing=0;verticalAlign=bottom;" parent="1" vertex="1">
          <mxGeometry x="438.4" y="331" width="25" height="14.97" as="geometry" />
        </mxCell>
        <mxCell id="2uqbH7pq5RH6AmWOPkkg-40" value="" style="whiteSpace=wrap;html=1;fillColor=#00CC00;rounded=1;arcSize=4;strokeWidth=2;strokeColor=none;imageAspect=1;resizeHeight=0;resizeWidth=0;gradientColor=none;" parent="1" vertex="1">
          <mxGeometry x="51" y="43" width="590" height="40" as="geometry" />
        </mxCell>
        <mxCell id="2uqbH7pq5RH6AmWOPkkg-41" value="&lt;b&gt;Consumer IaaS&lt;/b&gt;&lt;div&gt;Microsoft Entra ID Tenant (root)&lt;/div&gt;" style="image;aspect=fixed;html=1;points=[];align=left;fontSize=12;image=img/lib/azure2/other/Entra_Identity.svg;labelPosition=right;verticalLabelPosition=middle;verticalAlign=middle;labelBackgroundColor=#00CC00;fontColor=#FFFFFF;" parent="1" vertex="1">
          <mxGeometry x="276.25" y="50" width="33.75" height="30" as="geometry" />
        </mxCell>
        <mxCell id="2uqbH7pq5RH6AmWOPkkg-42" style="rounded=0;orthogonalLoop=1;jettySize=auto;html=1;entryX=0.951;entryY=1.026;entryDx=0;entryDy=0;endArrow=none;startFill=0;strokeColor=#000000;entryPerimeter=0;exitX=0.32;exitY=0.33;exitDx=0;exitDy=0;exitPerimeter=0;" parent="1" source="2uqbH7pq5RH6AmWOPkkg-37" target="2uqbH7pq5RH6AmWOPkkg-12" edge="1">
          <mxGeometry relative="1" as="geometry">
            <mxPoint x="414" y="667" as="sourcePoint" />
            <mxPoint x="413" y="457" as="targetPoint" />
          </mxGeometry>
        </mxCell>
        <mxCell id="2uqbH7pq5RH6AmWOPkkg-43" value="ARS Subnet" style="image;aspect=fixed;html=1;points=[];align=left;fontSize=12;image=img/lib/azure2/networking/Subnet.svg;labelBackgroundColor=#DDEDFD;spacing=0;verticalAlign=bottom;" parent="1" vertex="1">
          <mxGeometry x="460.4" y="151" width="25" height="14.97" as="geometry" />
        </mxCell>
        <mxCell id="2uqbH7pq5RH6AmWOPkkg-44" value="Public IPs" style="image;aspect=fixed;html=1;points=[];align=center;fontSize=12;image=img/lib/azure2/networking/Public_IP_Addresses.svg;" parent="1" vertex="1">
          <mxGeometry x="466.55999999999995" y="390" width="32.5" height="26" as="geometry" />
        </mxCell>
        <mxCell id="2uqbH7pq5RH6AmWOPkkg-45" value="SD-WAN Gateways" style="image;aspect=fixed;html=1;points=[];align=left;fontSize=12;image=img/lib/azure2/other/Local_Network_Gateways.svg;labelPosition=right;verticalLabelPosition=middle;verticalAlign=bottom;labelBackgroundColor=#E6E6E6;" parent="1" vertex="1">
          <mxGeometry x="397" y="654" width="40" height="40" as="geometry" />
        </mxCell>
        <mxCell id="2uqbH7pq5RH6AmWOPkkg-46" style="rounded=0;orthogonalLoop=1;jettySize=auto;html=1;endArrow=none;startFill=0;strokeColor=#000000;exitX=0.13;exitY=1;exitDx=0;exitDy=0;exitPerimeter=0;" parent="1" source="2uqbH7pq5RH6AmWOPkkg-37" target="2uqbH7pq5RH6AmWOPkkg-45" edge="1">
          <mxGeometry relative="1" as="geometry">
            <mxPoint x="694" y="577" as="sourcePoint" />
            <mxPoint x="524" y="453" as="targetPoint" />
          </mxGeometry>
        </mxCell>
        <mxCell id="2uqbH7pq5RH6AmWOPkkg-47" value="" style="rounded=0;orthogonalLoop=1;jettySize=auto;html=1;bendable=1;orthogonal=0;ignoreEdge=0;endFill=1;noJump=0;strokeColor=#666666;exitX=0.402;exitY=-0.067;exitDx=0;exitDy=0;endArrow=classicThin;startFill=1;exitPerimeter=0;dashed=1;startArrow=classicThin;" parent="1" source="2uqbH7pq5RH6AmWOPkkg-32" target="2uqbH7pq5RH6AmWOPkkg-30" edge="1">
          <mxGeometry relative="1" as="geometry">
            <mxPoint x="419" y="389" as="sourcePoint" />
            <mxPoint x="419" y="352" as="targetPoint" />
          </mxGeometry>
        </mxCell>
        <mxCell id="2uqbH7pq5RH6AmWOPkkg-48" value="BGP" style="edgeLabel;html=1;align=center;verticalAlign=middle;resizable=0;points=[];" parent="2uqbH7pq5RH6AmWOPkkg-47" vertex="1" connectable="0">
          <mxGeometry x="-0.0417" y="-1" relative="1" as="geometry">
            <mxPoint x="-1" y="3" as="offset" />
          </mxGeometry>
        </mxCell>
        <mxCell id="2uqbH7pq5RH6AmWOPkkg-49" value="" style="rounded=0;orthogonalLoop=1;jettySize=auto;html=1;bendable=1;orthogonal=0;ignoreEdge=0;endFill=1;noJump=0;strokeColor=#666666;endArrow=classicThin;startFill=1;dashed=1;startArrow=classicThin;exitX=0.464;exitY=0.059;exitDx=0;exitDy=0;exitPerimeter=0;" parent="1" source="2uqbH7pq5RH6AmWOPkkg-31" target="2uqbH7pq5RH6AmWOPkkg-29" edge="1">
          <mxGeometry relative="1" as="geometry">
            <mxPoint x="325" y="282" as="sourcePoint" />
            <mxPoint x="463" y="247" as="targetPoint" />
          </mxGeometry>
        </mxCell>
        <mxCell id="2uqbH7pq5RH6AmWOPkkg-50" value="BGP" style="edgeLabel;html=1;align=center;verticalAlign=middle;resizable=0;points=[];" parent="2uqbH7pq5RH6AmWOPkkg-49" vertex="1" connectable="0">
          <mxGeometry x="-0.0417" y="-1" relative="1" as="geometry">
            <mxPoint x="-2" y="3" as="offset" />
          </mxGeometry>
        </mxCell>
        <mxCell id="2uqbH7pq5RH6AmWOPkkg-51" value="" style="rounded=0;orthogonalLoop=1;jettySize=auto;html=1;bendable=1;orthogonal=0;ignoreEdge=0;endFill=1;noJump=0;strokeColor=#666666;exitX=1;exitY=0.25;exitDx=0;exitDy=0;endArrow=classicThin;startFill=1;entryX=0.093;entryY=0.647;entryDx=0;entryDy=0;startArrow=classicThin;dashed=1;entryPerimeter=0;" parent="1" source="2uqbH7pq5RH6AmWOPkkg-4" target="2uqbH7pq5RH6AmWOPkkg-33" edge="1">
          <mxGeometry relative="1" as="geometry">
            <mxPoint x="190.72400000000016" y="107.01599999999985" as="sourcePoint" />
            <mxPoint x="282" y="162" as="targetPoint" />
          </mxGeometry>
        </mxCell>
        <mxCell id="2uqbH7pq5RH6AmWOPkkg-52" value="BGP" style="edgeLabel;html=1;align=center;verticalAlign=middle;resizable=0;points=[];labelBackgroundColor=#DDEDFD;" parent="2uqbH7pq5RH6AmWOPkkg-51" vertex="1" connectable="0">
          <mxGeometry x="0.102" y="1" relative="1" as="geometry">
            <mxPoint x="-60" y="17" as="offset" />
          </mxGeometry>
        </mxCell>
        <mxCell id="2uqbH7pq5RH6AmWOPkkg-53" value="" style="rounded=0;orthogonalLoop=1;jettySize=auto;html=1;bendable=1;orthogonal=0;ignoreEdge=0;endFill=1;noJump=0;strokeColor=#666666;endArrow=classicThin;startFill=1;entryX=0.906;entryY=0.015;entryDx=0;entryDy=0;startArrow=classicThin;dashed=1;entryPerimeter=0;exitX=0.368;exitY=0.964;exitDx=0;exitDy=0;exitPerimeter=0;" parent="1" source="2uqbH7pq5RH6AmWOPkkg-33" target="2uqbH7pq5RH6AmWOPkkg-29" edge="1">
          <mxGeometry relative="1" as="geometry">
            <mxPoint x="201" y="156" as="sourcePoint" />
            <mxPoint x="278" y="156" as="targetPoint" />
          </mxGeometry>
        </mxCell>
        <mxCell id="2uqbH7pq5RH6AmWOPkkg-54" value="BGP" style="edgeLabel;html=1;align=center;verticalAlign=middle;resizable=0;points=[];labelBackgroundColor=#DDEDFD;" parent="2uqbH7pq5RH6AmWOPkkg-53" vertex="1" connectable="0">
          <mxGeometry x="0.102" y="1" relative="1" as="geometry">
            <mxPoint x="4" y="-9" as="offset" />
          </mxGeometry>
        </mxCell>
        <mxCell id="2uqbH7pq5RH6AmWOPkkg-55" value="Azure&lt;div&gt;Route Server&lt;/div&gt;" style="image;aspect=fixed;html=1;points=[];align=left;fontSize=12;image=img/lib/azure2/networking/Virtual_Router.svg;spacing=2;labelPosition=right;verticalLabelPosition=middle;verticalAlign=middle;" parent="1" vertex="1">
          <mxGeometry x="390.5" y="116" width="34" height="34" as="geometry" />
        </mxCell>
        <mxCell id="2uqbH7pq5RH6AmWOPkkg-56" value="" style="rounded=0;orthogonalLoop=1;jettySize=auto;html=1;bendable=1;orthogonal=0;ignoreEdge=0;endFill=1;noJump=0;strokeColor=#666666;endArrow=classicThin;startFill=1;startArrow=classicThin;dashed=1;exitX=0.701;exitY=0.931;exitDx=0;exitDy=0;exitPerimeter=0;entryX=0.14;entryY=0.04;entryDx=0;entryDy=0;entryPerimeter=0;" parent="1" source="2uqbH7pq5RH6AmWOPkkg-55" target="2uqbH7pq5RH6AmWOPkkg-30" edge="1">
          <mxGeometry relative="1" as="geometry">
            <mxPoint x="394" y="143" as="sourcePoint" />
            <mxPoint x="460" y="190" as="targetPoint" />
          </mxGeometry>
        </mxCell>
        <mxCell id="2uqbH7pq5RH6AmWOPkkg-57" value="BGP" style="edgeLabel;html=1;align=center;verticalAlign=middle;resizable=0;points=[];labelBackgroundColor=#DDEDFD;" parent="2uqbH7pq5RH6AmWOPkkg-56" vertex="1" connectable="0">
          <mxGeometry x="0.102" y="1" relative="1" as="geometry">
            <mxPoint x="-6" y="-9" as="offset" />
          </mxGeometry>
        </mxCell>
        <mxCell id="2uqbH7pq5RH6AmWOPkkg-58" value="" style="whiteSpace=wrap;html=1;fillColor=none;rounded=1;arcSize=2;dashed=1;dashPattern=1 1;strokeWidth=2;strokeColor=#007FFF;glass=0;" parent="1" vertex="1">
          <mxGeometry x="750" y="90" width="260" height="384" as="geometry" />
        </mxCell>
        <mxCell id="2uqbH7pq5RH6AmWOPkkg-59" value="Connectors&amp;nbsp;&lt;span style=&quot;color: light-dark(rgb(0, 0, 0), rgb(255, 255, 255)); background-color: light-dark(rgb(221, 237, 253), rgb(23, 37, 50));&quot;&gt;VNet&lt;/span&gt;" style="image;aspect=fixed;html=1;points=[];align=left;fontSize=12;image=img/lib/azure2/networking/Virtual_Networks.svg;imageBackground=#DDEDFD;labelBackgroundColor=#DDEDFD;spacing=0;verticalAlign=top;" parent="1" vertex="1">
          <mxGeometry x="762" y="465" width="25" height="14.93" as="geometry" />
        </mxCell>
        <mxCell id="2uqbH7pq5RH6AmWOPkkg-60" value="" style="whiteSpace=wrap;html=1;fillColor=default;rounded=1;arcSize=2;strokeWidth=2;strokeColor=none;" parent="1" vertex="1">
          <mxGeometry x="760" y="100" width="240" height="210" as="geometry" />
        </mxCell>
        <mxCell id="2uqbH7pq5RH6AmWOPkkg-61" value="Connectors Subnet" style="image;aspect=fixed;html=1;points=[];align=left;fontSize=12;image=img/lib/azure2/networking/Subnet.svg;labelBackgroundColor=#DDEDFD;spacing=0;verticalAlign=bottom;" parent="1" vertex="1">
          <mxGeometry x="775.5" y="300.02" width="25" height="14.97" as="geometry" />
        </mxCell>
        <mxCell id="2uqbH7pq5RH6AmWOPkkg-62" value="" style="whiteSpace=wrap;html=1;fillColor=#5072EB;rounded=1;arcSize=4;strokeWidth=2;strokeColor=none;imageAspect=1;resizeHeight=0;resizeWidth=0;gradientColor=none;" parent="1" vertex="1">
          <mxGeometry x="750" y="42" width="390" height="40" as="geometry" />
        </mxCell>
        <mxCell id="2uqbH7pq5RH6AmWOPkkg-63" value="&lt;b&gt;Provider IaaS - Private Deployment&lt;/b&gt;&lt;div&gt;Microsoft Entra ID Tenant (root)&lt;/div&gt;" style="image;aspect=fixed;html=1;points=[];align=left;fontSize=12;image=img/lib/azure2/other/Entra_Identity.svg;labelPosition=right;verticalLabelPosition=middle;verticalAlign=middle;labelBackgroundColor=#5072EB;labelBorderColor=none;fontColor=#FFFFFF;" parent="1" vertex="1">
          <mxGeometry x="822" y="48" width="33.75" height="30" as="geometry" />
        </mxCell>
        <mxCell id="2uqbH7pq5RH6AmWOPkkg-64" value="Private Link&lt;div&gt;Service&lt;/div&gt;" style="image;aspect=fixed;html=1;points=[];align=center;fontSize=12;image=img/lib/azure2/networking/Private_Link_Service.svg;" parent="1" vertex="1">
          <mxGeometry x="775" y="207.48" width="40" height="23.19" as="geometry" />
        </mxCell>
        <mxCell id="2uqbH7pq5RH6AmWOPkkg-65" value="" style="rounded=0;orthogonalLoop=1;jettySize=auto;html=1;bendable=1;orthogonal=0;ignoreEdge=0;endFill=1;noJump=0;strokeColor=default;endArrow=blockThin;startFill=0;strokeWidth=3;entryX=0.013;entryY=0.342;entryDx=0;entryDy=0;entryPerimeter=0;" parent="1" edge="1">
          <mxGeometry relative="1" as="geometry">
            <mxPoint x="630.42" y="220" as="sourcePoint" />
            <mxPoint x="760.9099999999999" y="220.687" as="targetPoint" />
          </mxGeometry>
        </mxCell>
        <mxCell id="2uqbH7pq5RH6AmWOPkkg-66" value="Private Link" style="image;aspect=fixed;html=1;points=[];align=center;fontSize=12;image=img/lib/azure2/networking/Private_Link.svg;imageBackground=#DDEDFD;labelBackgroundColor=#DDEDFD;" parent="1" vertex="1">
          <mxGeometry x="670.42" y="195" width="40" height="36.67" as="geometry" />
        </mxCell>
        <mxCell id="2uqbH7pq5RH6AmWOPkkg-67" value="" style="whiteSpace=wrap;html=1;fillColor=default;rounded=1;arcSize=2;strokeWidth=2;strokeColor=none;" parent="1" vertex="1">
          <mxGeometry x="760" y="350" width="240" height="101" as="geometry" />
        </mxCell>
        <mxCell id="2uqbH7pq5RH6AmWOPkkg-68" value="Gateway Subnet" style="image;aspect=fixed;html=1;points=[];align=left;fontSize=12;image=img/lib/azure2/networking/Subnet.svg;labelBackgroundColor=#DDEDFD;spacing=0;labelPosition=center;verticalLabelPosition=bottom;verticalAlign=bottom;" parent="1" vertex="1">
          <mxGeometry x="905" y="442" width="25" height="14.97" as="geometry" />
        </mxCell>
        <mxCell id="2uqbH7pq5RH6AmWOPkkg-69" value="" style="image;aspect=fixed;html=1;points=[];align=center;fontSize=12;image=img/lib/azure2/networking/Public_IP_Addresses.svg;" parent="1" vertex="1">
          <mxGeometry x="799" y="392.89" width="32.5" height="26" as="geometry" />
        </mxCell>
        <mxCell id="2uqbH7pq5RH6AmWOPkkg-70" value="Public IPs" style="image;aspect=fixed;html=1;points=[];align=center;fontSize=12;image=img/lib/azure2/networking/Public_IP_Addresses.svg;" parent="1" vertex="1">
          <mxGeometry x="815" y="398.4" width="28.25" height="22.6" as="geometry" />
        </mxCell>
        <mxCell id="2uqbH7pq5RH6AmWOPkkg-71" value="NAT Gateway" style="image;aspect=fixed;html=1;points=[];align=center;fontSize=12;image=img/lib/azure2/networking/NAT.svg;" parent="1" vertex="1">
          <mxGeometry x="897" y="362" width="40" height="40" as="geometry" />
        </mxCell>
        <mxCell id="2uqbH7pq5RH6AmWOPkkg-72" value="Connectors&lt;div&gt;VM&lt;/div&gt;" style="image;aspect=fixed;html=1;points=[];align=center;fontSize=12;image=img/lib/azure2/compute/Virtual_Machine.svg;" parent="1" vertex="1">
          <mxGeometry x="940" y="204" width="32.34" height="30" as="geometry" />
        </mxCell>
        <mxCell id="2uqbH7pq5RH6AmWOPkkg-73" style="rounded=0;orthogonalLoop=1;jettySize=auto;html=1;entryX=0.533;entryY=1;entryDx=0;entryDy=0;endArrow=none;startFill=0;strokeColor=#000000;entryPerimeter=0;exitX=0.899;exitY=0.349;exitDx=0;exitDy=0;exitPerimeter=0;" parent="1" source="2uqbH7pq5RH6AmWOPkkg-37" target="2uqbH7pq5RH6AmWOPkkg-67" edge="1">
          <mxGeometry relative="1" as="geometry">
            <mxPoint x="694" y="577" as="sourcePoint" />
            <mxPoint x="527" y="459" as="targetPoint" />
          </mxGeometry>
        </mxCell>
        <mxCell id="2uqbH7pq5RH6AmWOPkkg-74" value="" style="verticalLabelPosition=bottom;sketch=0;html=1;fillColor=#666666;strokeColor=none;verticalAlign=top;pointerEvents=1;align=center;shape=mxgraph.cisco_safe.iot_things_icons.icon47;" parent="1" vertex="1">
          <mxGeometry x="726" y="562" width="40" height="40" as="geometry" />
        </mxCell>
        <mxCell id="2uqbH7pq5RH6AmWOPkkg-75" value="" style="whiteSpace=wrap;html=1;fillColor=none;rounded=1;arcSize=2;dashed=1;dashPattern=1 1;strokeWidth=2;strokeColor=#007FFF;glass=0;" parent="1" vertex="1">
          <mxGeometry x="1040" y="90" width="100" height="384" as="geometry" />
        </mxCell>
        <mxCell id="2uqbH7pq5RH6AmWOPkkg-76" value="" style="whiteSpace=wrap;html=1;fillColor=default;rounded=1;arcSize=2;strokeWidth=2;strokeColor=none;" parent="1" vertex="1">
          <mxGeometry x="1050" y="100" width="80" height="210" as="geometry" />
        </mxCell>
        <mxCell id="2uqbH7pq5RH6AmWOPkkg-77" value="Flow Runtime&lt;br&gt;&lt;div&gt;VM&lt;/div&gt;" style="image;aspect=fixed;html=1;points=[];align=center;fontSize=12;image=img/lib/azure2/compute/Virtual_Machine.svg;" parent="1" vertex="1">
          <mxGeometry x="1073.83" y="197" width="32.34" height="30" as="geometry" />
        </mxCell>
        <mxCell id="2uqbH7pq5RH6AmWOPkkg-78" value="Runtime&amp;nbsp;&lt;span style=&quot;color: light-dark(rgb(0, 0, 0), rgb(255, 255, 255)); background-color: light-dark(rgb(221, 237, 253), rgb(23, 37, 50));&quot;&gt;VNet&lt;/span&gt;" style="image;aspect=fixed;html=1;points=[];align=left;fontSize=12;image=img/lib/azure2/networking/Virtual_Networks.svg;imageBackground=#DDEDFD;labelBackgroundColor=#DDEDFD;spacing=0;verticalAlign=top;" parent="1" vertex="1">
          <mxGeometry x="1049" y="465" width="25" height="14.93" as="geometry" />
        </mxCell>
        <mxCell id="2uqbH7pq5RH6AmWOPkkg-79" value="" style="rounded=0;orthogonalLoop=1;jettySize=auto;html=1;bendable=1;orthogonal=0;ignoreEdge=0;endFill=1;noJump=0;strokeColor=default;endArrow=blockThin;startFill=0;strokeWidth=3;exitX=1.01;exitY=0.324;exitDx=0;exitDy=0;exitPerimeter=0;entryX=0.003;entryY=0.324;entryDx=0;entryDy=0;entryPerimeter=0;" parent="1" source="2uqbH7pq5RH6AmWOPkkg-58" target="2uqbH7pq5RH6AmWOPkkg-75" edge="1">
          <mxGeometry relative="1" as="geometry">
            <mxPoint x="840" y="230" as="sourcePoint" />
            <mxPoint x="1000" y="214" as="targetPoint" />
          </mxGeometry>
        </mxCell>
        <mxCell id="2uqbH7pq5RH6AmWOPkkg-80" value="Standard&lt;div&gt;Load&lt;/div&gt;&lt;div&gt;Balancer&lt;/div&gt;" style="image;aspect=fixed;html=1;points=[];align=center;fontSize=12;image=img/lib/azure2/networking/Load_Balancers.svg;" parent="1" vertex="1">
          <mxGeometry x="855" y="196" width="40" height="40" as="geometry" />
        </mxCell>
        <mxCell id="2uqbH7pq5RH6AmWOPkkg-81" style="rounded=0;orthogonalLoop=1;jettySize=auto;html=1;entryX=0.5;entryY=1;entryDx=0;entryDy=0;endArrow=none;startFill=0;strokeColor=#000000;exitX=0.978;exitY=0.641;exitDx=0;exitDy=0;exitPerimeter=0;" parent="1" source="2uqbH7pq5RH6AmWOPkkg-37" target="2uqbH7pq5RH6AmWOPkkg-75" edge="1">
          <mxGeometry relative="1" as="geometry">
            <mxPoint x="798" y="579" as="sourcePoint" />
            <mxPoint x="873" y="461" as="targetPoint" />
          </mxGeometry>
        </mxCell>
        <mxCell id="2uqbH7pq5RH6AmWOPkkg-82" style="rounded=0;orthogonalLoop=1;jettySize=auto;html=1;entryX=0.652;entryY=1.004;entryDx=0;entryDy=0;endArrow=none;startFill=0;strokeColor=#000000;exitX=0.652;exitY=-0.015;exitDx=0;exitDy=0;exitPerimeter=0;entryPerimeter=0;" parent="1" source="2uqbH7pq5RH6AmWOPkkg-67" target="2uqbH7pq5RH6AmWOPkkg-60" edge="1">
          <mxGeometry relative="1" as="geometry">
            <mxPoint x="798" y="579" as="sourcePoint" />
            <mxPoint x="873" y="461" as="targetPoint" />
          </mxGeometry>
        </mxCell>
      </root>
    </mxGraphModel>
  </diagram>
</mxfile>
